<?xml version="1.0" encoding="UTF-8"?>
<svg width="92px" height="92px" viewBox="0 0 92 92" version="1.1" xmlns="http://www.w3.org/2000/svg" xmlns:xlink="http://www.w3.org/1999/xlink">
    <!-- Generator: Sketch 41.2 (35397) - http://www.bohemiancoding.com/sketch -->
    <title>Artboard</title>
    <desc>Created with Sketch.</desc>
    <defs></defs>
    <g id="Page-1" stroke="none" stroke-width="1" fill="none" fill-rule="evenodd">
        <g id="Artboard" fill="#000000">
            <path d="M45.78125,3.00219825 C44.7508578,3.11542837 43.9777057,3.99709304 44,5.03344825 L44,11.1271983 C33.012718,12.1340333 25.936121,21.3847823 24,32.0334483 L20,54.0334483 C18.034242,64.8451203 9,62.0472273 9,70.0334483 C9,72.8034483 11.23,75.0334483 14,75.0334483 L78,75.0334483 C80.77,75.0334483 83,72.8034483 83,70.0334483 C83,62.0472483 73.965758,64.8451483 72,54.0334483 L68,32.0334483 C66.063879,21.3847833 58.987282,12.1340333 48,11.1271983 L48,5.03344825 C48.0084697,4.4921752 47.7971845,3.97058314 47.4143998,3.58779844 C47.0316151,3.20501374 46.5100231,2.99372854 45.96875,3.00219825 C45.9062844,2.99926725 45.8437156,2.99926725 45.78125,3.00219825 L45.78125,3.00219825 Z M34,77.0334483 C34,83.6814483 39.352,89.0334483 46,89.0334483 C52.648,89.0334483 58,83.6814483 58,77.0334483 L34,77.0334483 Z" id="Shape"></path>
        </g>
    </g>
</svg>