<?xml version="1.0" encoding="UTF-8"?>
<svg width="4px" height="4px" viewBox="0 0 4 4" version="1.1" xmlns="http://www.w3.org/2000/svg" xmlns:xlink="http://www.w3.org/1999/xlink">
    <!-- Generator: Sketch 41.2 (35397) - http://www.bohemiancoding.com/sketch -->
    <title>Shape</title>
    <desc>Created with Sketch.</desc>
    <defs></defs>
    <g id="Page-1" stroke="none" stroke-width="1" fill="none" fill-rule="evenodd">
        <g id="Artboard" transform="translate(-1.000000, -1.000000)" fill="#000000">
            <path d="M4.09263711,1.98494876 C3.77172645,1.22298584 2.92564616,0.828166776 2.13553629,1.07167763 C1.34542641,1.31518848 0.868389759,2.11779049 1.03208448,2.92820716 C1.1957792,3.73862383 1.94693883,4.29314451 2.76962065,4.21089023 C3.59230247,4.12863596 4.21880474,3.43637238 4.21880711,2.60958876 C4.21908476,2.39501922 4.17617619,2.18258831 4.09263711,1.98494876 Z M3.35931711,2.87439876 L2.74196711,3.49174876 C2.67141176,3.56230081 2.55702245,3.56230081 2.48646711,3.49174876 L1.86911711,2.87440876 C1.82347643,2.82876808 1.80565171,2.76224534 1.82235736,2.69989902 C1.83906301,2.63755269 1.88776103,2.58885466 1.95010736,2.57214902 C2.01245369,2.55544337 2.07897643,2.57326808 2.12461711,2.61890876 L2.43355711,2.92784876 L2.43355711,1.85516876 C2.43355711,1.75539024 2.51444358,1.67450376 2.61422211,1.67450376 C2.71400063,1.67450376 2.79488711,1.75539024 2.79488711,1.85516876 L2.79488711,2.92784876 L3.10382711,2.61890876 C3.17438148,2.54835439 3.28877273,2.54835439 3.35932711,2.61890876 C3.42988148,2.68946314 3.42988148,2.80385439 3.35932711,2.87440876 L3.35931711,2.87439876 Z" id="Shape"></path>
        </g>
    </g>
</svg>