<?xml version="1.0" encoding="UTF-8"?>
<svg width="89px" height="72px" viewBox="0 0 89 72" version="1.1" xmlns="http://www.w3.org/2000/svg" xmlns:xlink="http://www.w3.org/1999/xlink">
    <!-- Generator: Sketch 41.2 (35397) - http://www.bohemiancoding.com/sketch -->
    <title>Shape</title>
    <desc>Created with Sketch.</desc>
    <defs></defs>
    <g id="Page-1" stroke="none" stroke-width="1" fill="none" fill-rule="evenodd">
        <path d="M29.4060938,71.5994107 C61.9551562,70.7884615 79.7301562,43.708902 79.7301562,20.1774194 C79.7301562,19.3929901 79.7132812,18.6127481 79.678125,17.8380893 C83.2359375,15.2893921 86.3254687,12.1042184 88.7667187,8.4793734 C85.5,9.9170285 81.99,10.8884926 78.305625,11.3253722 C82.0659375,9.0879342 84.954375,5.5454404 86.3142187,1.323201 C82.794375,3.3945409 78.89625,4.8991935 74.7478125,5.7101427 C71.4234375,2.1969603 66.69,0 61.4517187,0 C51.3914062,0 43.2351563,8.0955335 43.2351563,18.0809553 C43.2351563,19.4976737 43.396875,20.876706 43.7076562,22.1999069 C28.5679687,21.4461849 15.1467188,14.248139 6.1621875,3.310794 C4.59421875,5.9809243 3.695625,9.0865385 3.695625,12.4001241 C3.695625,18.671371 6.9117188,24.2056452 11.7998438,27.4480459 C8.8129688,27.3545285 6.0046875,26.5407878 3.54796875,25.1868797 C3.5465625,25.2622519 3.5465625,25.3390199 3.5465625,25.4143921 C3.5465625,34.1743176 9.8254688,41.4812345 18.1589063,43.1422146 C16.6303125,43.555366 15.0215625,43.7772953 13.359375,43.7772953 C12.1865625,43.7772953 11.0446875,43.6628412 9.9323438,43.4520782 C12.25125,50.6347705 18.9773437,55.8619727 26.949375,56.0085298 C20.7140625,60.8574752 12.8601563,63.748139 4.32703125,63.748139 C2.863125,63.748139 1.41890625,63.6629963 0,63.4968983 L0,63.5066687 C7.7779688,68.4519231 16.965,71.3998139 26.8382813,71.5994107 L29.4060938,71.5994107" id="Shape" fill="#000000"></path>
    </g>
</svg>